# xmcd
#
# Track frame offsets: 
#        150
#        33363
#        64188
#        65074
#        89319
#        89947
#        130924
#        162718
#        186054
#        199063
#        199834
#        215187
#        227457
#        248085
#        250824
#
# Disc length: 3895 seconds
#
# Revision: 0
# Processed by: cddbd v1.5.2PL0 Copyright (c) Steve Scherf et al.
# Submitted via: ExactAudioCopy v1.3
#
DISCID=e40f350f
DTITLE=The Lachy Doley Group - Live at  Blues on Broadbeach 2016
DYEAR=2016
DGENRE=Blues
TTITLE0=Conviction
TTITLE1=Use me
TTITLE2=Talk 1
TTITLE3=Make it Up
TTITLE4=Talk 2
TTITLE5=Jealous guy
TTITLE6=Frankly my dear I don't give a damn
TTITLE7=If Looks Culd Kill
TTITLE8=Betcha I'll Getha
TTITLE9=Talk 3
TTITLE10=Stop Listenning to the Blues
TTITLE11=Two Leslies are Better than One
TTITLE12=Lazy
TTITLE13=Talk 4
TTITLE14=Still in Love
EXTD=
EXTT0=
EXTT1=
EXTT2=
EXTT3=
EXTT4=
EXTT5=
EXTT6=
EXTT7=
EXTT8=
EXTT9=
EXTT10=
EXTT11=
EXTT12=
EXTT13=
EXTT14=
PLAYORDER=
